# xmcd
#
# Track frame offsets:
#	150
#	16132
#	33176
#	49943
#	69175
#	87852
#	107570
#	123389
#	142192
#	154982
#	170889
#	187394
#	207075
#	229069
#	242935
#	257998
#	273549
#	290753
#	305877
#
# Disc length: 4327
#
# Revision: 2
# Processed by: cddbd v1.5.1PL0 Copyright (c) Steve Scherf et al.
# Submitted via: CDex 1.40Beta1
# Normalized: r1:DSETVAR1,TDELIM( - )
#
DISCID=2710e513
DTITLE=Various Artist - Country Hits
DYEAR=2001
DGENRE=Country
TTITLE0=Rascal Flatts - While You Loved Me
TTITLE1=Trisha Yearwood - I Would've Loved You Anyway
TTITLE2=Faith Hill - There You'll Be
TTITLE3=Lonestar - I'm Already There
TTITLE4=Brad Paisley - Two People Fell In Love
TTITLE5=Allison Krause - You Say It Best
TTITLE6=Alan Jackson - When Somebody Loves You
TTITLE7=Nickel Creek - Reasons Why
TTITLE8=Trick Pony - Pour Me
TTITLE9=Terri Clark - Everytime I Cry
TTITLE10=Sara Evans and Vince Gill - No Place That Far
TTITLE11=Garth Brooks - Shameless
TTITLE12=Dixie Chicks - Cowboy Take Me Away
TTITLE13=Jamie O'Neal - When I Think About Angels
TTITLE14=Clay Davidson - Sometimes
TTITLE15=Martina McBride - There You Are
TTITLE16=Allison Krause - Maybe
TTITLE17=Andy Griggs - She's More
TTITLE18=Mark Wills - Back At One
EXTD=YEAR: 2001 ID3G:   2
EXTT0=
EXTT1=
EXTT2=
EXTT3=
EXTT4=
EXTT5=
EXTT6=
EXTT7=
EXTT8=
EXTT9=
EXTT10=
EXTT11=
EXTT12=
EXTT13=
EXTT14=
EXTT15=
EXTT16=
EXTT17=
EXTT18=
PLAYORDER=
